<?xml version="1.0" standalone="no"?>
<!DOCTYPE svg PUBLIC "-//W3C//DTD SVG 20010904//EN"
 "http://www.w3.org/TR/2001/REC-SVG-20010904/DTD/svg10.dtd">
<svg version="1.0" xmlns="http://www.w3.org/2000/svg"
 width="612.000000pt" height="612.000000pt" viewBox="0 0 612.000000 612.000000"
 preserveAspectRatio="xMidYMid meet">
<metadata>
Created by potrace 1.14, written by Peter Selinger 2001-2017
</metadata>
<g transform="translate(0.000000,612.000000) scale(0.100000,-0.100000)"
fill="#000000" stroke="none">
<path d="M1085 5363 c-163 -36 -293 -139 -365 -288 -51 -106 -63 -176 -58
-327 4 -105 9 -137 36 -216 60 -175 136 -268 403 -493 99 -82 213 -189 254
-237 62 -71 184 -245 278 -394 22 -35 42 -35 64 0 99 157 197 298 258 372 72
85 108 119 368 339 248 211 347 400 347 662 0 137 -12 194 -62 296 -98 201
-309 320 -505 284 -231 -42 -394 -264 -429 -581 l-7 -65 -17 101 c-33 197 -92
325 -195 426 -99 97 -254 147 -370 121z"/>
<path d="M4538 5342 c-14 -15 -60 -72 -103 -127 -144 -183 -229 -261 -460
-420 -215 -148 -315 -242 -372 -350 -114 -216 -81 -474 81 -623 235 -217 605
-178 776 81 32 48 39 55 34 32 -28 -123 -133 -294 -253 -414 l-81 -81 409 0
409 0 -80 78 c-122 118 -234 301 -262 427 -5 24 -1 20 23 -20 100 -172 301
-267 504 -237 339 49 523 378 392 703 -56 140 -152 235 -428 426 -194 134
-316 247 -444 413 -44 58 -89 113 -100 122 -19 17 -20 17 -45 -10z"/>
<path d="M1552 2735 c-135 -38 -263 -137 -324 -251 -33 -61 -58 -160 -58 -232
0 -62 38 -183 76 -243 14 -23 23 -43 21 -46 -3 -2 -22 4 -44 15 -136 70 -293
68 -436 -4 -69 -35 -177 -145 -210 -214 -100 -207 -65 -423 94 -582 106 -107
230 -155 374 -146 130 9 289 100 450 259 55 55 100 99 101 99 1 0 -7 -30 -18
-67 -50 -169 -146 -324 -289 -467 -55 -54 -99 -101 -99 -102 0 -2 214 -4 475
-4 261 0 475 1 475 3 0 2 -44 48 -98 103 -147 149 -245 308 -296 484 l-16 54
87 -87 c193 -192 348 -277 504 -277 127 0 241 50 340 149 198 199 199 505 2
700 -76 74 -141 113 -228 136 -110 28 -200 18 -337 -40 -13 -5 -9 9 17 62 44
90 55 134 55 219 0 206 -137 395 -336 465 -78 27 -212 34 -282 14z"/>
<path d="M4468 2614 c-205 -277 -585 -792 -620 -840 l-37 -50 61 -80 c107
-138 207 -266 500 -641 57 -72 123 -157 146 -188 24 -31 48 -55 52 -53 4 2 34
38 66 80 33 42 200 257 372 478 l314 401 -18 27 c-9 15 -61 86 -114 157 -53
72 -142 191 -197 265 -108 146 -331 447 -366 494 -12 17 -31 41 -43 54 l-20
24 -96 -128z"/>
</g>
</svg>
